{"title":"Dr. Goldfoot and his Bikini Machine (1965) DVDrip","uid":10216800,"size":774753588,"categoryP":"video","categoryS":"movies","magnet":"?xt=urn:btih:08888062089a9ef686a7692e4d15cad8d5f23435&amp;dn=Dr.+Goldfoot+and+his+Bikini+Machine+%281965%29+DVDrip&amp;tr=udp%3A%2F%2Ftracker.openbittorrent.com%3A80&amp;tr=udp%3A%2F%2Fopen.demonii.com%3A1337&amp;tr=udp%3A%2F%2Ftracker.coppersurfer.tk%3A6969&amp;tr=udp%3A%2F%2Fexodus.desync.com%3A6969","seeders":1,"leechers":1,"uploader":"Pitufo7777","files":2,"time":1400978873,"description":"Another one I had and realized the ones online were not that good a quality so i ripped my dvd.\nHope everyone enjoys\n\nRemember to share and SEED\n\nPapaPitufo\n\nVideo\nID : 1\nFormat : AVC\nFormat/Info : Advanced Video Codec\nFormat profile : &lt;a class=&quot;__cf_email__&quot; href=&quot;/cdn-cgi/l/email-protection&quot; data-cfemail=&quot;763b171f18363a445847&quot;&gt;[email&amp;#160;protected]&lt;/a&gt;&lt;script data-cfhash='f9e31' type=&quot;text/javascript&quot;&gt;\n/* &lt;![CDATA[ */!function(){try{var t=&quot;currentScript&quot;in document?document.currentScript:function(){for(var t=document.getElementsByTagName(&quot;script&quot;),e=t.length;e--;)if(t[e].getAttribute(&quot;data-cfhash&quot;))return t[e]}();if(t&amp;&amp;t.previousSibling){var e,r,n,i,c=t.previousSibling,a=c.getAttribute(&quot;data-cfemail&quot;);if(a){for(e=&quot;&quot;,r=parseInt(a.substr(0,2),16),n=2;a.length-n;n+=2)i=parseInt(a.substr(n,2),16)^r,e+=String.fromCharCode(i);e=document.createTextNode(e),c.parentNode.replaceChild(e,c)}t.parentNode.removeChild(t);}}catch(u){}}()/* ]]&gt; */&lt;/script&gt;\nFormat settings, CABAC : Yes\nFormat settings, ReFrames : 4 frames\nCodec ID : avc1\nCodec ID/Info : Advanced Video Coding\nDuration : 1h 28mn\nBit rate : 967 Kbps\nWidth : 716 pixels\nHeight : 272 pixels\nDisplay aspect ratio : 2.35:1\nFrame rate mode : Variable\nFrame rate : 23.976 fps\nMinimum frame rate : 19.969 fps\nMaximum frame rate : 29.970 fps\nColor space : YUV\nChroma subsampling : 4:2:0\nBit depth : 8 bits\nScan type : Progressive\nBits/(Pixel*Frame) : 0.207\nStream size : 614 MiB (83%)\nWriting library : x264 core 112\n\n\nAudio\nID : 2\nFormat : AC-3\nFormat/Info : Audio Coding 3\nMode extension : CM (complete main)\nFormat settings, Endianness : Big\nCodec ID : ac-3\nDuration : 1h 28mn\nBit rate mode : Constant\nBit rate : 192 Kbps\nChannel(s) : 2 channels\nChannel positions : Front: L R\nSampling rate : 48.0 KHz\nBit depth : 16 bits\nCompression mode : Lossy\nStream size : 122 MiB (16%)\nLanguage : English\nEncoded date : UTC 2014-05-22 20:44:22\nTagged date : UTC 2014-05-22 20:58:10","torrent":{"xt":"urn:btih:08888062089a9ef686a7692e4d15cad8d5f23435","amp;dn":"Dr.+Goldfoot+and+his+Bikini+Machine+%281965%29+DVDrip","amp;tr":["udp%3A%2F%2Ftracker.openbittorrent.com%3A80","udp%3A%2F%2Fopen.demonii.com%3A1337","udp%3A%2F%2Ftracker.coppersurfer.tk%3A6969","udp%3A%2F%2Fexodus.desync.com%3A6969"],"infoHash":"08888062089a9ef686a7692e4d15cad8d5f23435","infoHashBuffer":{"type":"Buffer","data":[8,136,128,98,8,154,158,246,134,167,105,46,77,21,202,216,213,242,52,53]},"announce":[],"urlList":[]}}